<svg width="20" height="11" viewBox="0 0 20 11" fill="none" xmlns="http://www.w3.org/2000/svg">
<path d="M1.22266 4.82188C0.824682 4.82188 0.50206 5.14451 0.50206 5.54248C0.50206 5.94045 0.824682 6.26308 1.22266 6.26308L1.22266 5.54248L1.22266 4.82188ZM19.3922 6.05202C19.6736 5.77061 19.6736 5.31435 19.3922 5.03294L14.8063 0.447096C14.5249 0.165686 14.0686 0.165686 13.7872 0.447096C13.5058 0.728507 13.5058 1.18476 13.7872 1.46617L17.8635 5.54248L13.7872 9.61879C13.5058 9.9002 13.5058 10.3565 13.7872 10.6379C14.0686 10.9193 14.5249 10.9193 14.8063 10.6379L19.3922 6.05202ZM1.22266 5.54248L1.22266 6.26308L18.8826 6.26308L18.8826 5.54248L18.8826 4.82189L1.22266 4.82188L1.22266 5.54248Z" fill="#FF5A31"/>
</svg>
