<svg width="27" height="24" viewBox="0 0 27 24" fill="none" xmlns="http://www.w3.org/2000/svg">
<path d="M10.1507 22.6674V15.6554C10.1507 15.4093 10.2267 15.2103 10.3786 15.0583C10.5306 14.9064 10.7332 14.8304 10.9865 14.8304H15.6214C15.8747 14.8304 16.0737 14.9064 16.2184 15.0583C16.3703 15.2103 16.4463 15.4093 16.4463 15.6554V22.6674H10.1507ZM1.27163 12.5509C0.982173 12.5509 0.754227 12.4641 0.58779 12.2904C0.421353 12.1095 0.338135 11.9069 0.338135 11.6826C0.338135 11.4004 0.453917 11.1652 0.685481 10.977L11.996 1.47927C12.4012 1.13193 12.8354 0.958252 13.2985 0.958252C13.7616 0.958252 14.1958 1.13193 14.6011 1.47927L25.9115 10.977C26.1431 11.1652 26.2589 11.4004 26.2589 11.6826C26.2589 11.9069 26.1757 12.1095 26.0092 12.2904C25.85 12.4641 25.6221 12.5509 25.3254 12.5509C25.1734 12.5509 25.0323 12.5148 24.902 12.4424C24.779 12.37 24.6632 12.2904 24.5547 12.2036L13.6784 3.07489C13.5626 2.97359 13.436 2.92293 13.2985 2.92293C13.161 2.92293 13.0344 2.97359 12.9186 3.07489L2.05316 12.2036C1.93738 12.2904 1.81436 12.37 1.6841 12.4424C1.56108 12.5148 1.42359 12.5509 1.27163 12.5509ZM20.3648 6.78716V4.19292C20.3648 3.95412 20.4372 3.76597 20.5819 3.62848C20.7267 3.48375 20.9148 3.41139 21.1464 3.41139H22.3078C22.5466 3.41139 22.7348 3.48375 22.8722 3.62848C23.017 3.76597 23.0893 3.95412 23.0893 4.19292V9.08833L20.3648 6.78716ZM5.96081 23.7854C5.18651 23.7854 4.58228 23.5756 4.14809 23.1559C3.72115 22.7434 3.50767 22.1536 3.50767 21.3866V9.3597L5.25526 8.1874V20.9524C5.25526 21.307 5.34571 21.5747 5.52662 21.7556C5.71477 21.9438 5.98252 22.0378 6.32986 22.0378H20.278C20.6253 22.0378 20.8895 21.9438 21.0704 21.7556C21.2513 21.5747 21.3417 21.307 21.3417 20.9524V8.17655L23.0893 9.3597V21.3866C23.0893 22.1464 22.8759 22.7362 22.4489 23.1559C22.022 23.5756 21.4213 23.7854 20.6471 23.7854H5.96081Z" fill="#374151"/>
</svg>
