<svg width="5" height="19" viewBox="0 0 5 19" fill="none" xmlns="http://www.w3.org/2000/svg">
<path d="M2.52039 10.667C3.07267 10.667 3.52039 10.2193 3.52039 9.66699C3.52039 9.11471 3.07267 8.66699 2.52039 8.66699C1.9681 8.66699 1.52039 9.11471 1.52039 9.66699C1.52039 10.2193 1.9681 10.667 2.52039 10.667Z" stroke="black" stroke-width="2" stroke-linecap="round" stroke-linejoin="round"/>
<path d="M2.52039 3.66699C3.07267 3.66699 3.52039 3.21928 3.52039 2.66699C3.52039 2.11471 3.07267 1.66699 2.52039 1.66699C1.9681 1.66699 1.52039 2.11471 1.52039 2.66699C1.52039 3.21928 1.9681 3.66699 2.52039 3.66699Z" stroke="black" stroke-width="2" stroke-linecap="round" stroke-linejoin="round"/>
<path d="M2.52039 17.667C3.07267 17.667 3.52039 17.2193 3.52039 16.667C3.52039 16.1147 3.07267 15.667 2.52039 15.667C1.9681 15.667 1.52039 16.1147 1.52039 16.667C1.52039 17.2193 1.9681 17.667 2.52039 17.667Z" stroke="black" stroke-width="2" stroke-linecap="round" stroke-linejoin="round"/>
</svg>
