<svg width="22" height="24" viewBox="0 0 22 24" fill="none" xmlns="http://www.w3.org/2000/svg">
<path d="M3.29498 23.7855C1.21755 23.7855 0.178833 23.0849 0.178833 21.6837C0.178833 20.8527 0.42731 19.981 0.924264 19.0686C1.42936 18.1561 2.15036 17.3048 3.08724 16.5145C4.03226 15.7243 5.16467 15.0848 6.48445 14.596C7.80423 14.099 9.28694 13.8505 10.9326 13.8505C12.5619 13.8505 14.0365 14.099 15.3563 14.596C16.6842 15.0848 17.8166 15.7243 18.7535 16.5145C19.6904 17.3048 20.4073 18.1561 20.9043 19.0686C21.4094 19.981 21.6619 20.8527 21.6619 21.6837C21.6619 23.0849 20.6232 23.7855 18.5458 23.7855H3.29498ZM2.90393 21.6715H18.949C19.0875 21.6715 19.1853 21.647 19.2423 21.5981C19.3075 21.5493 19.3401 21.4678 19.3401 21.3537C19.3401 20.8812 19.1568 20.3435 18.7902 19.7407C18.4236 19.1297 17.8777 18.539 17.1527 17.9687C16.4357 17.3903 15.5559 16.9137 14.5131 16.539C13.4703 16.1561 12.2768 15.9646 10.9326 15.9646C9.58023 15.9646 8.37857 16.1561 7.32764 16.539C6.28485 16.9137 5.405 17.3903 4.68808 17.9687C3.97116 18.539 3.42533 19.1297 3.05058 19.7407C2.68397 20.3435 2.50067 20.8812 2.50067 21.3537C2.50067 21.4678 2.52918 21.5493 2.58621 21.5981C2.65138 21.647 2.75729 21.6715 2.90393 21.6715ZM10.9326 12.4208C9.94683 12.4208 9.04661 12.1601 8.23193 11.6387C7.4254 11.1173 6.7818 10.4207 6.30114 9.54904C5.82048 8.66919 5.58015 7.69972 5.58015 6.64064C5.58015 5.59785 5.82048 4.64875 6.30114 3.79333C6.7818 2.92977 7.4254 2.24137 8.23193 1.72812C9.04661 1.21488 9.94683 0.958252 10.9326 0.958252C11.9184 0.958252 12.8145 1.2108 13.621 1.7159C14.4357 2.221 15.0793 2.90126 15.5518 3.75667C16.0325 4.61209 16.2728 5.56526 16.2728 6.6162C16.2728 7.68342 16.0325 8.65697 15.5518 9.53682C15.0712 10.4167 14.4276 11.1173 13.621 11.6387C12.8145 12.1601 11.9184 12.4208 10.9326 12.4208ZM10.9326 10.2945C11.5029 10.2945 12.0243 10.1356 12.4968 9.81788C12.9693 9.49201 13.3481 9.05208 13.6333 8.4981C13.9184 7.93597 14.061 7.30867 14.061 6.6162C14.061 5.94001 13.9184 5.33715 13.6333 4.80761C13.3481 4.26992 12.9693 3.84629 12.4968 3.53671C12.0243 3.22713 11.5029 3.07234 10.9326 3.07234C10.3623 3.07234 9.84092 3.23121 9.36841 3.54893C8.8959 3.85851 8.51707 4.28214 8.23193 4.81983C7.94679 5.35752 7.80423 5.96445 7.80423 6.64064C7.80423 7.32497 7.94679 7.94819 8.23193 8.51032C8.51707 9.0643 8.8959 9.50016 9.36841 9.81788C9.84907 10.1356 10.3705 10.2945 10.9326 10.2945Z" fill="#374151"/>
</svg>
