<svg width="27" height="27" viewBox="0 0 27 27" fill="none" xmlns="http://www.w3.org/2000/svg">
<path d="M13.2189 26.3319C11.4316 26.3319 9.75444 25.993 8.18738 25.3154C6.62032 24.6462 5.24385 23.7187 4.05797 22.5328C2.87209 21.3469 1.94032 19.9705 1.26268 18.4034C0.593499 16.8363 0.258911 15.1592 0.258911 13.3719C0.258911 11.5846 0.593499 9.9074 1.26268 8.34034C1.94032 6.77328 2.87209 5.39681 4.05797 4.21092C5.24385 3.01657 6.62032 2.08481 8.18738 1.41563C9.75444 0.746453 11.4316 0.411865 13.2189 0.411865C15.0062 0.411865 16.6834 0.746453 18.2504 1.41563C19.8175 2.08481 21.194 3.01657 22.3799 4.21092C23.5657 5.39681 24.4933 6.77328 25.1624 8.34034C25.8401 9.9074 26.1789 11.5846 26.1789 13.3719C26.1789 15.1592 25.8401 16.8363 25.1624 18.4034C24.4933 19.9705 23.5657 21.3469 22.3799 22.5328C21.194 23.7187 19.8175 24.6462 18.2504 25.3154C16.6834 25.993 15.0062 26.3319 13.2189 26.3319ZM13.2189 24.1719C14.7097 24.1719 16.1074 23.8923 17.4119 23.3333C18.7163 22.7742 19.8641 21.9992 20.8551 21.0081C21.8462 20.017 22.6213 18.8693 23.1803 17.5648C23.7394 16.2603 24.0189 14.8627 24.0189 13.3719C24.0189 11.881 23.7394 10.4834 23.1803 9.17892C22.6213 7.86598 21.8462 6.71822 20.8551 5.73563C19.8641 4.74457 18.7163 3.96951 17.4119 3.41045C16.1074 2.85139 14.7097 2.57187 13.2189 2.57187C11.7281 2.57187 10.3304 2.85139 9.02597 3.41045C7.7215 3.96951 6.57373 4.74457 5.58268 5.73563C4.59162 6.71822 3.81656 7.86598 3.2575 9.17892C2.69844 10.4834 2.41891 11.881 2.41891 13.3719C2.41891 14.8627 2.69844 16.2603 3.2575 17.5648C3.81656 18.8693 4.59162 20.017 5.58268 21.0081C6.57373 21.9992 7.7215 22.7742 9.02597 23.3333C10.3304 23.8923 11.7281 24.1719 13.2189 24.1719ZM6.24338 14.4392C5.87068 14.4392 5.60809 14.3375 5.45562 14.1342C5.30315 13.9225 5.25656 13.6895 5.31585 13.4354C5.37515 13.1813 5.54456 12.9907 5.82409 12.8636L17.8184 7.15869C18.1488 7.00622 18.4453 6.98081 18.7079 7.08245C18.9789 7.1841 19.1653 7.36622 19.2669 7.62881C19.3686 7.8914 19.3431 8.18787 19.1907 8.51822L13.5493 20.538C13.4222 20.809 13.2316 20.9785 12.9775 21.0462C12.7319 21.1055 12.5031 21.0589 12.2914 20.9065C12.0796 20.754 11.9737 20.4872 11.9737 20.106V14.8585C11.9737 14.5789 11.8382 14.4392 11.5671 14.4392H6.24338Z" fill="white"/>
</svg>
