<svg width="15" height="19" viewBox="0 0 15 19" fill="none" xmlns="http://www.w3.org/2000/svg">
<path d="M14.1947 7.96133C14.1947 13.6094 7.5 18.4507 7.5 18.4507C7.5 18.4507 0.805298 13.6094 0.805298 7.96133C0.805298 6.03536 1.51063 4.18828 2.76613 2.82641C4.02163 1.46455 5.72445 0.699463 7.5 0.699463C9.27555 0.699463 10.9784 1.46455 12.2339 2.82641C13.4894 4.18828 14.1947 6.03536 14.1947 7.96133Z" fill="#FF5A31"/>
<path d="M7.5 10.4531C8.9995 10.4531 10.2151 9.2388 10.2151 7.74084C10.2151 6.24289 8.9995 5.02856 7.5 5.02856C6.0005 5.02856 4.78491 6.24289 4.78491 7.74084C4.78491 9.2388 6.0005 10.4531 7.5 10.4531Z" fill="white"/>
</svg>
