<svg width="28" height="28" viewBox="0 0 28 28" fill="none" xmlns="http://www.w3.org/2000/svg">
<path d="M14.2447 17.6679C16.1254 17.6679 17.6501 16.1433 17.6501 14.2625C17.6501 12.3818 16.1254 10.8572 14.2447 10.8572C12.364 10.8572 10.8394 12.3818 10.8394 14.2625C10.8394 16.1433 12.364 17.6679 14.2447 17.6679Z" stroke="#FF5A31" stroke-width="2" stroke-linecap="round" stroke-linejoin="round"/>
<path d="M22.6446 17.6681C22.4935 18.0104 22.4485 18.3902 22.5152 18.7584C22.582 19.1267 22.7575 19.4665 23.0192 19.734L23.0873 19.8021C23.2984 20.0129 23.4659 20.2633 23.5801 20.5389C23.6944 20.8145 23.7532 21.1099 23.7532 21.4083C23.7532 21.7066 23.6944 22.002 23.5801 22.2776C23.4659 22.5533 23.2984 22.8036 23.0873 23.0145C22.8765 23.2256 22.6261 23.393 22.3505 23.5073C22.0749 23.6215 21.7795 23.6803 21.4811 23.6803C21.1828 23.6803 20.8874 23.6215 20.6118 23.5073C20.3362 23.393 20.0858 23.2256 19.8749 23.0145L19.8068 22.9464C19.5393 22.6847 19.1995 22.5091 18.8313 22.4424C18.4631 22.3756 18.0833 22.4207 17.7409 22.5718C17.4052 22.7157 17.1189 22.9546 16.9172 23.2591C16.7155 23.5637 16.6073 23.9205 16.6058 24.2858V24.4788C16.6058 25.0809 16.3666 25.6583 15.9409 26.0841C15.5151 26.5098 14.9377 26.749 14.3356 26.749C13.7335 26.749 13.156 26.5098 12.7303 26.0841C12.3045 25.6583 12.0653 25.0809 12.0653 24.4788V24.3766C12.0565 24.0009 11.9349 23.6365 11.7163 23.3308C11.4976 23.0252 11.1921 22.7923 10.8394 22.6626C10.497 22.5115 10.1172 22.4664 9.749 22.5332C9.38078 22.5999 9.04099 22.7755 8.77347 23.0372L8.70536 23.1053C8.49452 23.3164 8.24414 23.4838 7.96853 23.5981C7.69293 23.7123 7.39751 23.7711 7.09917 23.7711C6.80082 23.7711 6.5054 23.7123 6.2298 23.5981C5.9542 23.4838 5.70381 23.3164 5.49297 23.1053C5.28189 22.8944 5.11444 22.6441 5.00019 22.3685C4.88594 22.0929 4.82714 21.7974 4.82714 21.4991C4.82714 21.2007 4.88594 20.9053 5.00019 20.6297C5.11444 20.3541 5.28189 20.1037 5.49297 19.8929L5.56108 19.8248C5.82276 19.5573 5.99831 19.2175 6.06508 18.8493C6.13184 18.481 6.08677 18.1012 5.93567 17.7589C5.79178 17.4231 5.55285 17.1368 5.24831 16.9351C4.94377 16.7334 4.5869 16.6252 4.22163 16.6237H4.02866C3.42656 16.6237 2.84911 16.3846 2.42336 15.9588C1.99761 15.5331 1.75842 14.9556 1.75842 14.3535C1.75842 13.7514 1.99761 13.174 2.42336 12.7482C2.84911 12.3224 3.42656 12.0833 4.02866 12.0833H4.13083C4.50654 12.0745 4.87093 11.9529 5.17661 11.7342C5.48229 11.5156 5.71513 11.2101 5.84486 10.8573C5.99596 10.515 6.04103 10.1352 5.97427 9.76695C5.9075 9.39872 5.73195 9.05894 5.47027 8.79141L5.40216 8.72331C5.19108 8.51246 5.02363 8.26208 4.90938 7.98648C4.79513 7.71087 4.73633 7.41546 4.73633 7.11711C4.73633 6.81877 4.79513 6.52335 4.90938 6.24774C5.02363 5.97214 5.19108 5.72176 5.40216 5.51091C5.613 5.29984 5.86339 5.13238 6.13899 5.01814C6.41459 4.90389 6.71001 4.84508 7.00836 4.84508C7.3067 4.84508 7.60212 4.90389 7.87772 5.01814C8.15333 5.13238 8.40371 5.29984 8.61455 5.51091L8.68266 5.57902C8.95018 5.84071 9.28997 6.01625 9.65819 6.08302C10.0264 6.14979 10.4062 6.10471 10.7486 5.95361H10.8394C11.1751 5.80972 11.4615 5.5708 11.6631 5.26626C11.8648 4.96171 11.9731 4.60485 11.9745 4.23958V4.04661C11.9745 3.4445 12.2137 2.86706 12.6394 2.44131C13.0652 2.01555 13.6426 1.77637 14.2448 1.77637C14.8469 1.77637 15.4243 2.01555 15.8501 2.44131C16.2758 2.86706 16.515 3.4445 16.515 4.04661V4.14877C16.5164 4.51404 16.6247 4.87091 16.8264 5.17545C17.028 5.47999 17.3144 5.71891 17.6501 5.8628C17.9925 6.0139 18.3723 6.05898 18.7405 5.99221C19.1087 5.92544 19.4485 5.7499 19.716 5.48821L19.7841 5.4201C19.995 5.20903 20.2454 5.04158 20.521 4.92733C20.7966 4.81308 21.092 4.75427 21.3903 4.75427C21.6887 4.75427 21.9841 4.81308 22.2597 4.92733C22.5353 5.04158 22.7857 5.20903 22.9965 5.4201C23.2076 5.63095 23.3751 5.88133 23.4893 6.15693C23.6036 6.43254 23.6624 6.72796 23.6624 7.0263C23.6624 7.32465 23.6036 7.62006 23.4893 7.89567C23.3751 8.17127 23.2076 8.42165 22.9965 8.6325L22.9284 8.7006C22.6667 8.96813 22.4912 9.30791 22.4244 9.67614C22.3577 10.0444 22.4027 10.4242 22.5538 10.7665V10.8573C22.6977 11.1931 22.9366 11.4794 23.2412 11.6811C23.5457 11.8828 23.9026 11.991 24.2679 11.9925H24.4608C25.0629 11.9925 25.6404 12.2316 26.0661 12.6574C26.4919 13.0831 26.7311 13.6606 26.7311 14.2627C26.7311 14.8648 26.4919 15.4422 26.0661 15.868C25.6404 16.2938 25.0629 16.5329 24.4608 16.5329H24.3587C23.9934 16.5344 23.6365 16.6426 23.332 16.8443C23.0275 17.046 22.7885 17.3323 22.6446 17.6681Z" stroke="#FF5A31" stroke-width="2" stroke-linecap="round" stroke-linejoin="round"/>
</svg>
