<svg width="29" height="25" viewBox="0 0 29 25" fill="none" xmlns="http://www.w3.org/2000/svg">
<path d="M1.86182 6.24925L5.79337 9.61159C6.05295 9.83365 6.38016 9.9552 6.71807 9.9552H23.0053C23.3433 9.9552 23.6704 9.83365 23.93 9.61159L27.8616 6.24925M6.91733 15.1435H6.93178M22.8061 15.1435H22.8205M9.31603 1.06091H20.4075C21.4441 1.06091 22.4014 1.63099 22.9156 2.55474L27.1004 10.0704C27.5992 10.9663 27.8616 11.9803 27.8616 13.0123V21.8143C27.8616 22.633 27.2149 23.2966 26.4172 23.2966H24.9727C24.175 23.2966 23.5283 22.633 23.5283 21.8143V20.3319H6.19512V21.8143C6.19512 22.633 5.54841 23.2966 4.75068 23.2966H3.30625C2.50852 23.2966 1.86182 22.633 1.86182 21.8143V13.0123C1.86182 11.9803 2.12421 10.9663 2.62308 10.0704L6.80779 2.55474C7.32212 1.63099 8.27933 1.06091 9.31603 1.06091ZM7.63955 15.1435C7.63955 15.5528 7.3162 15.8847 6.91733 15.8847C6.51847 15.8847 6.19512 15.5528 6.19512 15.1435C6.19512 14.7343 6.51847 14.4024 6.91733 14.4024C7.3162 14.4024 7.63955 14.7343 7.63955 15.1435ZM23.5283 15.1435C23.5283 15.5528 23.2049 15.8847 22.8061 15.8847C22.4073 15.8847 22.0839 15.5528 22.0839 15.1435C22.0839 14.7343 22.4073 14.4024 22.8061 14.4024C23.2049 14.4024 23.5283 14.7343 23.5283 15.1435Z" stroke="white" stroke-width="2.11375" stroke-linecap="round" stroke-linejoin="round"/>
</svg>
