<svg width="30" height="40" viewBox="0 0 30 40" fill="none" xmlns="http://www.w3.org/2000/svg">
<path d="M26.6659 6.2005H19.9889C19.9889 6.2005 14.5542 6.2005 14.5542 15.3055" stroke="white" stroke-width="2.11375" stroke-linecap="round" stroke-linejoin="round"/>
<path d="M22.6689 11.2681L28.7006 6.2003L22.6689 1.13251" stroke="white" stroke-width="2.11375" stroke-linecap="round" stroke-linejoin="round"/>
<path d="M1.5542 20.91L5.48576 24.2723C5.74534 24.4944 6.07254 24.6159 6.41045 24.6159H22.6977C23.0357 24.6159 23.3628 24.4944 23.6224 24.2723L27.554 20.91M6.60971 29.8042H6.62416H6.60971ZM22.4985 29.8042H22.5129H22.4985ZM9.00841 15.7216H20.0999C21.1365 15.7216 22.0937 16.2917 22.608 17.2154L26.7928 24.7311C27.2915 25.627 27.554 26.641 27.554 27.673V36.475C27.554 37.2937 26.9073 37.9573 26.1096 37.9573H24.6651C23.8674 37.9573 23.2207 37.2937 23.2207 36.475V34.9926H5.8875V36.475C5.8875 37.2937 5.2408 37.9573 4.44306 37.9573H2.99863C2.2009 37.9573 1.5542 37.2937 1.5542 36.475V27.673C1.5542 26.641 1.81659 25.627 2.31546 24.7311L6.50017 17.2154C7.0145 16.2917 7.97171 15.7216 9.00841 15.7216ZM7.33193 29.8042C7.33193 30.2135 7.00858 30.5454 6.60971 30.5454C6.21085 30.5454 5.8875 30.2135 5.8875 29.8042C5.8875 29.395 6.21085 29.0631 6.60971 29.0631C7.00858 29.0631 7.33193 29.395 7.33193 29.8042ZM23.2207 29.8042C23.2207 30.2135 22.8973 30.5454 22.4985 30.5454C22.0997 30.5454 21.7763 30.2135 21.7763 29.8042C21.7763 29.395 22.0997 29.0631 22.4985 29.0631C22.8973 29.0631 23.2207 29.395 23.2207 29.8042Z" fill="#FF5A31"/>
<path d="M1.5542 20.91L5.48576 24.2723C5.74534 24.4944 6.07254 24.6159 6.41045 24.6159H22.6977C23.0357 24.6159 23.3628 24.4944 23.6224 24.2723L27.554 20.91M6.60971 29.8042H6.62416M22.4985 29.8042H22.5129M9.00841 15.7216H20.0999C21.1365 15.7216 22.0937 16.2917 22.608 17.2154L26.7928 24.7311C27.2915 25.627 27.554 26.641 27.554 27.673V36.475C27.554 37.2937 26.9073 37.9573 26.1096 37.9573H24.6651C23.8674 37.9573 23.2207 37.2937 23.2207 36.475V34.9926H5.8875V36.475C5.8875 37.2937 5.2408 37.9573 4.44307 37.9573H2.99863C2.2009 37.9573 1.5542 37.2937 1.5542 36.475V27.673C1.5542 26.641 1.81659 25.627 2.31546 24.7311L6.50017 17.2154C7.0145 16.2917 7.97171 15.7216 9.00841 15.7216ZM7.33193 29.8042C7.33193 30.2135 7.00858 30.5454 6.60971 30.5454C6.21085 30.5454 5.8875 30.2135 5.8875 29.8042C5.8875 29.395 6.21085 29.0631 6.60971 29.0631C7.00858 29.0631 7.33193 29.395 7.33193 29.8042ZM23.2207 29.8042C23.2207 30.2135 22.8973 30.5454 22.4985 30.5454C22.0997 30.5454 21.7763 30.2135 21.7763 29.8042C21.7763 29.395 22.0997 29.0631 22.4985 29.0631C22.8973 29.0631 23.2207 29.395 23.2207 29.8042Z" stroke="white" stroke-width="2.11375" stroke-linecap="round" stroke-linejoin="round"/>
</svg>
